<?xml version="1.0" encoding="utf-8"?>
<!-- Generator: Adobe Illustrator 16.0.0, SVG Export Plug-In . SVG Version: 6.00 Build 0)  -->
<!DOCTYPE svg PUBLIC "-//W3C//DTD SVG 1.1//EN" "http://www.w3.org/Graphics/SVG/1.1/DTD/svg11.dtd">
<svg version="1.1" id="Layer_1" xmlns="http://www.w3.org/2000/svg" xmlns:xlink="http://www.w3.org/1999/xlink" x="0px" y="0px"
	 width="400px" height="600px" viewBox="0 0 400 600" enable-background="new 0 0 400 600" xml:space="preserve">
<g id="Layer_1_1_" display="none">
	
		<image display="inline" overflow="visible" enable-background="new    " width="2560" height="1600" xlink:href="TV-test-pattern-_129015-55.jpg"  transform="matrix(0.1562 0 0 0.375 4.882812e-04 0)">
	</image>
</g>
<g id="Layer_2">
	<rect x="284" y="-1" fill="#C40300" width="58" height="416"/>
	<rect x="342" y="-1" fill="#0F00C2" width="58" height="416"/>
	<rect x="227" y="-1" fill="#C300C2" width="57" height="416"/>
	<rect x="171" y="-1" fill="#00C100" width="56" height="416"/>
	<rect x="114" y="-1" fill="#00C1C0" width="57" height="416"/>
	<rect x="56" y="-1" fill="#C0C100" width="58" height="416"/>
	<rect y="-1" fill="#C0C0C0" width="56" height="416"/>
	<rect x="284" y="397" fill="#131313" width="58" height="67"/>
	<rect x="235" y="530" fill="#131313" width="165" height="70"/>
	<g>
		<rect y="530" fill="#131313" width="19" height="70"/>
		<rect x="19" y="530" fill="#282828" width="20" height="70"/>
		<rect x="39" y="530" fill="#3E3E3E" width="19" height="70"/>
		<rect x="58" y="530" fill="#535353" width="20" height="70"/>
		<rect x="78" y="530" fill="#696969" width="20" height="70"/>
		<rect x="97" y="530" fill="#7E7E7E" width="20" height="70"/>
		<rect x="117" y="530" fill="#949494" width="20" height="70"/>
		<rect x="136" y="530" fill="#A9A9A9" width="20" height="70"/>
		<rect x="156" y="530" fill="#BFBFBF" width="20" height="70"/>
		<rect x="175" y="530" fill="#D4D4D4" width="21" height="70"/>
		<rect x="195" y="530" fill="#EAEAEA" width="20" height="70"/>
		<rect x="214" y="530" fill="#FFFFFF" width="21" height="70"/>
	</g>
	<rect x="342" y="397" fill="#C0C0C0" width="58" height="67"/>
	<rect x="227" y="397" fill="#00C1C0" width="57" height="67"/>
	<rect x="171" y="397" fill="#131313" width="56" height="67"/>
	<rect x="114" y="397" fill="#C300C2" width="57" height="67"/>
	<rect x="56" y="397" fill="#131313" width="58" height="67"/>
	<rect y="397" fill="#0F00C2" width="56" height="67"/>
	
		<linearGradient id="SVGID_1_" gradientUnits="userSpaceOnUse" x1="106" y1="8.5" x2="343" y2="8.5" gradientTransform="matrix(1 0 0 -1 -106 505)">
		<stop  offset="0" style="stop-color:#FFFFFF"/>
		<stop  offset="1" style="stop-color:#000000"/>
	</linearGradient>
	<rect y="463" fill="url(#SVGID_1_)" width="237" height="67"/>
	
		<linearGradient id="SVGID_2_" gradientUnits="userSpaceOnUse" x1="342.5" y1="8" x2="505.5" y2="8" gradientTransform="matrix(1 0 0 -1 -106 505)">
		<stop  offset="0" style="stop-color:#FFFFFF"/>
		<stop  offset="1" style="stop-color:#000000"/>
	</linearGradient>
	
		<linearGradient id="SVGID_3_" gradientUnits="userSpaceOnUse" x1="342" y1="8" x2="506" y2="8" gradientTransform="matrix(1 0 0 -1 -106 505)">
		<stop  offset="0" style="stop-color:#FFFFFF"/>
		<stop  offset="1" style="stop-color:#000000"/>
	</linearGradient>
	<rect x="236.5" y="463.5" fill="url(#SVGID_2_)" stroke="url(#SVGID_3_)" stroke-miterlimit="10" width="163" height="67"/>
</g>
</svg>
