<?xml version="1.0" encoding="utf-8"?>
<!-- Generator: Adobe Illustrator 16.0.0, SVG Export Plug-In . SVG Version: 6.00 Build 0)  -->
<!DOCTYPE svg PUBLIC "-//W3C//DTD SVG 1.1//EN" "http://www.w3.org/Graphics/SVG/1.1/DTD/svg11.dtd">
<svg version="1.1" id="Layer_1" xmlns="http://www.w3.org/2000/svg" xmlns:xlink="http://www.w3.org/1999/xlink" x="0px" y="0px"
	 viewBox="0 0 180.334 60" enable-background="new 0 0 180.334 60" xml:space="preserve">
<g>
	<path d="M166.25,35.149c0,1.988-1.61,3.601-3.601,3.601H3.6c-1.988,0-3.6-1.61-3.6-3.601V3.6C0,1.612,1.611,0,3.6,0h159.051
		c1.988,0,3.6,1.611,3.6,3.6L166.25,35.149L166.25,35.149z"/>
	<g>
		<path fill="#FFFFFF" d="M11.83,10.966h5.999c0.651,0,1.28,0.062,1.886,0.188c0.606,0.164,1.219,0.5,1.84,1.008
			c0.521,0.383,0.945,0.93,1.27,1.641c0.34,0.688,0.51,1.5,0.51,2.438c0,1.266-0.432,2.417-1.295,3.456
			c-0.887,1.094-2.182,1.656-3.887,1.688h-3.818v6.669h-2.506L11.83,10.966L11.83,10.966z M14.335,18.947h3.719
			c0.933-0.016,1.634-0.313,2.104-0.896c0.447-0.565,0.671-1.193,0.671-1.884c0-0.572-0.091-1.056-0.273-1.448
			c-0.189-0.353-0.455-0.632-0.796-0.836c-0.516-0.337-1.115-0.498-1.797-0.482h-3.628V18.947z"/>
		<path fill="#FFFFFF" d="M32.756,24.23H26.48l-1.271,3.821h-2.656l6.016-17.086h2.1l6.016,17.086H34.04L32.756,24.23z
			 M32.041,21.936l-2.395-7.475h-0.045l-2.395,7.475H32.041z"/>
		<path fill="#FFFFFF" d="M39.943,13.262h-4.536v-2.296h11.58v2.296h-4.539v14.79h-2.506L39.943,13.262L39.943,13.262z"/>
		<path fill="#FFFFFF" d="M49.13,10.966h2.506v17.086H49.13V10.966z"/>
		<path fill="#FFFFFF" d="M55.318,10.966H65.89v2.437h-8.066v4.889h6.886v2.295h-6.886v5.029h8.066v2.437H55.318V10.966z"/>
		<path fill="#FFFFFF" d="M68.666,10.966h2.362l7.495,12.146h0.045V10.966h2.506v17.086H78.7l-7.483-12.146h-0.045v12.146h-2.506
			V10.966z"/>
		<path fill="#FFFFFF" d="M87.896,13.262h-4.535v-2.296h11.58v2.296h-4.539v14.79h-2.506V13.262z"/>
		<path fill="#FFFFFF" d="M101.829,25.907l7.504-12.646h-7.441v-2.296h10.506v1.947l-7.77,12.702h7.77v2.437H101.83L101.829,25.907
			L101.829,25.907z"/>
		<path fill="#FFFFFF" d="M115.294,10.966h10.572v2.437H117.8v4.889h6.887v2.295H117.8v5.029h8.066v2.437h-10.572V10.966z"/>
		<path fill="#FFFFFF" d="M128.642,10.966h6.467c1.379,0,2.506,0.375,3.377,1.125c1.047,0.852,1.594,2.066,1.641,3.645
			c-0.031,2.32-1.096,3.898-3.197,4.734l3.832,7.582h-2.979l-3.426-7.302h-3.209v7.302h-2.506V10.966z M131.147,18.455h3.801
			c0.941-0.016,1.646-0.298,2.115-0.846c0.463-0.509,0.695-1.136,0.695-1.88c-0.016-0.893-0.293-1.539-0.832-1.939
			c-0.424-0.352-1.037-0.528-1.843-0.528h-3.938v5.193H131.147z"/>
		<path fill="#FFFFFF" d="M142.716,19.509c0-1.988,0.057-3.319,0.17-3.992c0.121-0.674,0.307-1.218,0.557-1.633
			c0.4-0.786,1.045-1.486,1.93-2.102c0.869-0.622,1.955-0.941,3.256-0.957c1.316,0.016,2.413,0.336,3.29,0.961
			c0.87,0.617,1.498,1.32,1.884,2.109c0.279,0.414,0.473,0.957,0.578,1.629c0.098,0.672,0.146,2,0.146,3.984
			c0,1.953-0.049,3.273-0.146,3.961c-0.105,0.688-0.299,1.238-0.579,1.652c-0.386,0.789-1.014,1.484-1.883,2.086
			c-0.878,0.625-1.976,0.953-3.29,0.984c-1.301-0.031-2.387-0.359-3.256-0.984c-0.887-0.602-1.527-1.297-1.93-2.086
			c-0.12-0.258-0.23-0.504-0.328-0.738c-0.092-0.242-0.167-0.547-0.229-0.914C142.772,22.782,142.716,21.462,142.716,19.509z
			 M145.222,19.509c0,1.684,0.062,2.822,0.182,3.418c0.107,0.594,0.322,1.076,0.648,1.443c0.266,0.353,0.613,0.639,1.047,0.857
			c0.424,0.259,0.933,0.388,1.522,0.388c0.599,0,1.118-0.129,1.558-0.388c0.418-0.219,0.75-0.505,1.002-0.857
			c0.324-0.367,0.549-0.85,0.67-1.443c0.113-0.596,0.17-1.734,0.17-3.418c0-1.684-0.057-2.83-0.17-3.441
			c-0.121-0.578-0.346-1.053-0.67-1.42c-0.252-0.353-0.584-0.646-1.002-0.881c-0.438-0.228-0.959-0.349-1.558-0.364
			c-0.591,0.016-1.101,0.137-1.522,0.364c-0.434,0.234-0.781,0.528-1.047,0.881c-0.326,0.367-0.542,0.841-0.648,1.42
			C145.282,16.679,145.222,17.825,145.222,19.509z"/>
	</g>
	<path d="M180.299,57.329c0,1.477-1.196,2.671-2.671,2.671H63.623c-1.476,0-2.672-1.194-2.672-2.671V33.921
		c0-1.476,1.196-2.671,2.672-2.671h114.005c1.475,0,2.671,1.195,2.671,2.671V57.329z"/>
	<g>
		<path fill="#F9DB00" d="M69.306,43.521h1.253v8.543h-1.253V43.521z"/>
		<path fill="#F9DB00" d="M72.502,49.993c0.659,0.561,1.443,0.844,2.352,0.852c1.075-0.016,1.621-0.412,1.636-1.191
			c0.008-0.637-0.352-1.02-1.079-1.147c-0.333-0.047-0.698-0.1-1.096-0.157c-0.711-0.121-1.252-0.395-1.624-0.816
			c-0.382-0.434-0.573-0.961-0.573-1.583c0-0.747,0.24-1.349,0.72-1.806c0.465-0.455,1.125-0.686,1.979-0.692
			c1.028,0.022,1.922,0.317,2.682,0.882L76.8,45.397c-0.621-0.424-1.304-0.644-2.05-0.658c-0.386,0-0.708,0.1-0.965,0.299
			c-0.269,0.208-0.407,0.518-0.415,0.928c0,0.246,0.093,0.469,0.278,0.668c0.186,0.203,0.483,0.344,0.892,0.422
			c0.227,0.039,0.537,0.084,0.931,0.135c0.776,0.109,1.35,0.397,1.72,0.863c0.367,0.457,0.551,0.988,0.551,1.596
			c-0.042,1.634-1.009,2.463-2.904,2.485c-1.225,0-2.278-0.389-3.159-1.166L72.502,49.993z"/>
		<path fill="#F9DB00" d="M92.259,48.521c-0.27,1.177-0.783,2.078-1.542,2.709c-0.78,0.625-1.704,0.938-2.772,0.938
			c-0.965-0.022-1.77-0.267-2.416-0.729c-0.655-0.446-1.132-0.963-1.429-1.549c-0.09-0.189-0.171-0.373-0.244-0.548
			c-0.067-0.18-0.124-0.405-0.168-0.678c-0.084-0.511-0.126-1.49-0.126-2.938c0-1.473,0.042-2.457,0.126-2.955
			c0.09-0.5,0.227-0.902,0.413-1.209c0.297-0.586,0.775-1.107,1.432-1.564c0.645-0.465,1.451-0.702,2.416-0.713
			c1.186,0.011,2.15,0.373,2.896,1.084c0.747,0.719,1.219,1.605,1.415,2.666h-1.974c-0.152-0.512-0.428-0.947-0.827-1.307
			c-0.416-0.345-0.922-0.521-1.519-0.533c-0.438,0.013-0.815,0.103-1.131,0.271c-0.319,0.174-0.578,0.393-0.774,0.653
			c-0.242,0.272-0.402,0.624-0.479,1.054c-0.092,0.453-0.137,1.305-0.137,2.553c0,1.25,0.045,2.096,0.137,2.537
			c0.077,0.44,0.237,0.797,0.479,1.07c0.196,0.262,0.455,0.475,0.776,0.637c0.314,0.191,0.691,0.287,1.131,0.287
			c1.045,0,1.828-0.578,2.346-1.734h1.971V48.521z"/>
		<path fill="#F9DB00" d="M93.462,45.724c0-1.475,0.042-2.463,0.127-2.961c0.09-0.5,0.227-0.904,0.412-1.212
			c0.297-0.583,0.773-1.103,1.432-1.56c0.646-0.461,1.449-0.698,2.416-0.709c0.977,0.011,1.789,0.248,2.439,0.713
			c0.646,0.457,1.111,0.979,1.398,1.564c0.207,0.307,0.35,0.709,0.429,1.209c0.073,0.498,0.108,1.482,0.108,2.955
			c0,1.448-0.035,2.43-0.108,2.938c-0.079,0.51-0.222,0.918-0.429,1.226c-0.287,0.586-0.754,1.103-1.398,1.549
			c-0.65,0.463-1.465,0.707-2.439,0.729c-0.967-0.022-1.771-0.267-2.416-0.729c-0.658-0.446-1.135-0.963-1.432-1.549
			c-0.09-0.189-0.172-0.373-0.244-0.548c-0.066-0.18-0.124-0.405-0.168-0.678C93.504,48.153,93.462,47.173,93.462,45.724z
			 M95.321,45.724c0,1.25,0.045,2.096,0.135,2.536c0.078,0.441,0.238,0.8,0.48,1.071c0.196,0.262,0.455,0.475,0.775,0.637
			c0.314,0.191,0.691,0.287,1.13,0.287c0.445,0,0.83-0.096,1.156-0.287c0.31-0.162,0.558-0.375,0.742-0.637
			c0.241-0.273,0.407-0.63,0.497-1.071c0.085-0.44,0.127-1.286,0.127-2.536c0-1.248-0.042-2.1-0.127-2.553
			c-0.09-0.43-0.256-0.781-0.497-1.054c-0.187-0.263-0.435-0.479-0.742-0.653c-0.326-0.169-0.711-0.259-1.156-0.271
			c-0.438,0.013-0.813,0.103-1.13,0.271c-0.32,0.174-0.579,0.393-0.775,0.653c-0.242,0.272-0.402,0.624-0.48,1.054
			C95.366,43.624,95.321,44.476,95.321,45.724z"/>
		<path fill="#F9DB00" d="M104.739,39.386h1.752l5.561,9.012h0.034v-9.012h1.858v12.678h-1.76l-5.554-9.013h-0.032v9.013h-1.859
			V39.386z"/>
		<path fill="#F9DB00" d="M119.007,41.089h-3.365v-1.703h8.592v1.703h-3.366v10.975h-1.859L119.007,41.089L119.007,41.089z"/>
		<path fill="#F9DB00" d="M130.794,49.228h-4.656l-0.943,2.836h-1.971l4.463-12.678h1.56l4.463,12.678h-1.963L130.794,49.228z
			 M130.265,47.524l-1.777-5.545h-0.033l-1.775,5.545H130.265z"/>
		<path fill="#F9DB00" d="M135.36,39.386h1.859v12.678h-1.859V39.386z"/>
		<path fill="#F9DB00" d="M139.952,39.386h1.752l5.561,9.012h0.034v-9.012h1.859v12.678h-1.761l-5.553-9.013h-0.033v9.013h-1.859
			V39.386z"/>
		<path fill="#F9DB00" d="M152.133,39.386h7.845v1.809h-5.984v3.628h5.109v1.702h-5.109v3.73h5.984v1.809h-7.845V39.386z"/>
		<path fill="#F9DB00" d="M162.036,39.386h4.297c1.662,0.012,2.909,0.725,3.74,2.139c0.297,0.477,0.484,0.976,0.562,1.496
			c0.062,0.521,0.094,1.424,0.094,2.703c0,1.363-0.049,2.313-0.145,2.854c-0.045,0.271-0.111,0.516-0.202,0.729
			c-0.095,0.209-0.21,0.428-0.345,0.652c-0.359,0.598-0.859,1.09-1.5,1.479c-0.635,0.418-1.412,0.627-2.333,0.627h-4.17
			L162.036,39.386L162.036,39.386z M163.896,50.255h2.228c1.045,0,1.804-0.369,2.276-1.105c0.207-0.272,0.34-0.618,0.396-1.037
			c0.05-0.412,0.075-1.186,0.075-2.317c0-1.104-0.025-1.894-0.075-2.37c-0.067-0.476-0.228-0.861-0.479-1.158
			c-0.519-0.738-1.248-1.095-2.192-1.072h-2.228V50.255z"/>
	</g>
</g>
</svg>
