<?xml version="1.0" encoding="utf-8"?>
<!-- Generator: Adobe Illustrator 16.0.0, SVG Export Plug-In . SVG Version: 6.00 Build 0)  -->
<!DOCTYPE svg PUBLIC "-//W3C//DTD SVG 1.1//EN" "http://www.w3.org/Graphics/SVG/1.1/DTD/svg11.dtd">
<svg version="1.1" id="Layer_1" xmlns="http://www.w3.org/2000/svg" xmlns:xlink="http://www.w3.org/1999/xlink" x="0px" y="0px"
	 width="173.938px" height="60.062px" viewBox="0 0 173.938 60.062" enable-background="new 0 0 173.938 60.062"
	 xml:space="preserve">
<g>
	<path d="M166.25,35.15c0,1.988-1.611,3.6-3.6,3.6H3.6c-1.988,0-3.6-1.611-3.6-3.6V3.6C0,1.612,1.611,0,3.6,0h159.05
		c1.988,0,3.601,1.611,3.601,3.6L166.25,35.15L166.25,35.15z"/>
	<g>
		<path fill="#FFFFFF" d="M11.83,10.966h5.999c0.651,0,1.28,0.062,1.886,0.188c0.606,0.164,1.219,0.5,1.84,1.008
			c0.521,0.383,0.945,0.93,1.27,1.64c0.34,0.688,0.51,1.5,0.51,2.438c0,1.266-0.432,2.417-1.295,3.457
			c-0.887,1.094-2.182,1.656-3.887,1.688h-3.818v6.669h-2.506L11.83,10.966L11.83,10.966z M14.335,18.947h3.719
			c0.933-0.016,1.634-0.314,2.104-0.895c0.447-0.565,0.671-1.193,0.671-1.884c0-0.573-0.091-1.056-0.273-1.448
			c-0.189-0.353-0.455-0.632-0.796-0.836c-0.516-0.337-1.115-0.498-1.797-0.482h-3.628V18.947z"/>
		<path fill="#FFFFFF" d="M32.756,24.23H26.48l-1.271,3.821h-2.656l6.016-17.086h2.1l6.016,17.086H34.04L32.756,24.23z
			 M32.041,21.936l-2.395-7.475h-0.045l-2.395,7.475H32.041z"/>
		<path fill="#FFFFFF" d="M39.943,13.262h-4.536v-2.296h11.58v2.296h-4.539v14.79h-2.506L39.943,13.262L39.943,13.262z"/>
		<path fill="#FFFFFF" d="M49.13,10.966h2.506v17.086H49.13V10.966z"/>
		<path fill="#FFFFFF" d="M55.318,10.966H65.89v2.437h-8.066v4.889h6.886v2.295h-6.886v5.029h8.066v2.437H55.318V10.966
			L55.318,10.966z"/>
		<path fill="#FFFFFF" d="M68.666,10.966h2.362l7.495,12.146h0.045V10.966h2.506v17.086H78.7l-7.483-12.146h-0.045v12.146h-2.506
			V10.966z"/>
		<path fill="#FFFFFF" d="M87.896,13.262H83.36v-2.296h11.58v2.296h-4.537v14.79h-2.506V13.262L87.896,13.262z"/>
		<path fill="#FFFFFF" d="M101.83,25.907l7.503-12.645h-7.44v-2.296h10.506v1.947l-7.77,12.703h7.77v2.437h-10.567L101.83,25.907
			L101.83,25.907z"/>
		<path fill="#FFFFFF" d="M115.295,10.966h10.572v2.437h-8.066v4.889h6.885v2.295h-6.885v5.029h8.066v2.437h-10.572V10.966z"/>
		<path fill="#FFFFFF" d="M128.643,10.966h6.467c1.379,0,2.505,0.375,3.375,1.125c1.048,0.852,1.595,2.066,1.642,3.645
			c-0.03,2.32-1.096,3.898-3.196,4.734l3.832,7.582h-2.979l-3.425-7.302h-3.209v7.302h-2.506V10.966L128.643,10.966z
			 M131.148,18.455h3.801c0.939-0.016,1.646-0.297,2.115-0.846c0.463-0.509,0.694-1.136,0.694-1.88
			c-0.016-0.893-0.293-1.539-0.832-1.938c-0.424-0.353-1.038-0.529-1.843-0.529h-3.938v5.193H131.148z"/>
		<path fill="#FFFFFF" d="M142.716,19.509c0-1.988,0.058-3.319,0.171-3.993c0.12-0.673,0.307-1.217,0.557-1.632
			c0.399-0.786,1.043-1.486,1.929-2.102c0.869-0.622,1.955-0.941,3.256-0.957c1.315,0.016,2.413,0.336,3.29,0.961
			c0.87,0.617,1.498,1.32,1.884,2.109c0.279,0.414,0.474,0.957,0.578,1.629c0.099,0.672,0.147,2,0.147,3.984
			c0,1.953-0.051,3.273-0.147,3.961c-0.106,0.688-0.299,1.238-0.579,1.652c-0.386,0.789-1.014,1.484-1.883,2.086
			c-0.878,0.625-1.975,0.953-3.29,0.984c-1.301-0.031-2.387-0.359-3.256-0.984c-0.886-0.602-1.528-1.297-1.929-2.086
			c-0.121-0.258-0.231-0.504-0.329-0.738c-0.091-0.242-0.167-0.547-0.228-0.914C142.771,22.782,142.716,21.462,142.716,19.509z
			 M145.223,19.509c0,1.683,0.061,2.822,0.182,3.417c0.105,0.595,0.322,1.077,0.647,1.444c0.265,0.352,0.613,0.638,1.046,0.857
			c0.424,0.258,0.934,0.387,1.523,0.387c0.6,0,1.117-0.129,1.559-0.387c0.416-0.219,0.75-0.505,1-0.857
			c0.325-0.368,0.549-0.85,0.672-1.444c0.112-0.595,0.17-1.734,0.17-3.417c0-1.683-0.058-2.83-0.17-3.441
			c-0.123-0.579-0.347-1.053-0.672-1.421c-0.25-0.352-0.584-0.646-1-0.881c-0.439-0.227-0.959-0.348-1.559-0.364
			c-0.592,0.016-1.1,0.137-1.523,0.364c-0.433,0.235-0.781,0.529-1.046,0.881c-0.325,0.368-0.542,0.841-0.647,1.421
			C145.282,16.679,145.223,17.826,145.223,19.509z"/>
	</g>
	<path d="M173.875,57.329c0,1.476-1.195,2.671-2.671,2.671H80.873c-1.476,0-2.672-1.195-2.672-2.671V33.921
		c0-1.476,1.196-2.671,2.672-2.671h90.331c1.476,0,2.671,1.195,2.671,2.671V57.329L173.875,57.329z"/>
	<g>
		<path fill="#F92137" d="M86.557,43.52h1.252v8.543h-1.252V43.52z"/>
		<path fill="#F92137" d="M89.752,49.992c0.659,0.561,1.443,0.844,2.352,0.852c1.076-0.016,1.621-0.412,1.638-1.189
			c0.008-0.637-0.353-1.021-1.079-1.149c-0.333-0.047-0.698-0.101-1.096-0.157c-0.713-0.121-1.254-0.394-1.625-0.814
			c-0.381-0.434-0.571-0.963-0.571-1.584c0-0.746,0.239-1.35,0.72-1.807c0.465-0.453,1.124-0.685,1.979-0.691
			c1.027,0.023,1.923,0.316,2.683,0.883l-0.698,1.062c-0.621-0.422-1.305-0.642-2.05-0.656c-0.387,0-0.709,0.1-0.966,0.299
			c-0.27,0.207-0.407,0.516-0.415,0.926c0,0.247,0.094,0.471,0.278,0.669c0.186,0.204,0.482,0.345,0.892,0.423
			c0.228,0.039,0.537,0.084,0.931,0.135c0.776,0.109,1.351,0.396,1.721,0.861c0.367,0.458,0.551,0.99,0.551,1.596
			c-0.041,1.636-1.01,2.463-2.903,2.486c-1.225,0-2.278-0.389-3.159-1.166L89.752,49.992z"/>
		<path fill="#F92137" d="M101.227,39.386h1.859v10.869h5.984v1.808h-7.844V39.386L101.227,39.386z"/>
		<path fill="#F92137" d="M110.712,45.725c0-1.476,0.042-2.463,0.126-2.963c0.09-0.5,0.229-0.902,0.413-1.211
			c0.298-0.583,0.774-1.104,1.431-1.559c0.646-0.463,1.451-0.699,2.416-0.711c0.978,0.012,1.791,0.25,2.441,0.713
			c0.645,0.459,1.111,0.98,1.396,1.564c0.207,0.309,0.352,0.711,0.43,1.209c0.072,0.498,0.109,1.483,0.109,2.957
			c0,1.448-0.037,2.428-0.109,2.938c-0.078,0.51-0.223,0.919-0.43,1.227c-0.287,0.586-0.752,1.102-1.396,1.547
			c-0.652,0.465-1.465,0.707-2.441,0.73c-0.965-0.023-1.771-0.268-2.416-0.73c-0.656-0.445-1.134-0.961-1.432-1.547
			c-0.09-0.191-0.17-0.373-0.243-0.548c-0.067-0.18-0.124-0.405-0.169-0.679C110.754,48.152,110.712,47.174,110.712,45.725z
			 M112.57,45.725c0,1.248,0.045,2.094,0.136,2.535c0.079,0.441,0.239,0.799,0.481,1.072c0.194,0.261,0.455,0.473,0.774,0.635
			c0.313,0.192,0.69,0.288,1.131,0.288c0.443,0,0.828-0.096,1.155-0.288c0.311-0.162,0.557-0.374,0.742-0.635
			c0.24-0.273,0.406-0.631,0.496-1.072c0.086-0.441,0.127-1.287,0.127-2.535s-0.041-2.1-0.127-2.553
			c-0.09-0.43-0.256-0.781-0.496-1.055c-0.186-0.262-0.434-0.479-0.742-0.654c-0.327-0.168-0.712-0.258-1.155-0.27
			c-0.438,0.012-0.815,0.102-1.131,0.27c-0.319,0.176-0.58,0.393-0.774,0.654c-0.242,0.273-0.402,0.624-0.481,1.055
			C112.615,43.625,112.57,44.477,112.57,45.725z"/>
		<path fill="#F92137" d="M121.572,45.725c0-1.476,0.041-2.463,0.126-2.963c0.089-0.5,0.228-0.902,0.413-1.211
			c0.297-0.583,0.772-1.104,1.43-1.559c0.646-0.463,1.451-0.699,2.416-0.711c0.977,0.012,1.791,0.25,2.441,0.713
			c0.646,0.459,1.11,0.98,1.396,1.564c0.208,0.309,0.352,0.711,0.43,1.209c0.072,0.498,0.108,1.483,0.108,2.957
			c0,1.448-0.036,2.428-0.108,2.938c-0.078,0.51-0.222,0.919-0.43,1.227c-0.286,0.586-0.753,1.102-1.396,1.547
			c-0.651,0.465-1.465,0.707-2.441,0.73c-0.965-0.023-1.77-0.268-2.416-0.73c-0.656-0.445-1.133-0.961-1.432-1.547
			c-0.09-0.191-0.17-0.373-0.242-0.548c-0.068-0.18-0.125-0.405-0.169-0.679C121.613,48.152,121.572,47.174,121.572,45.725z
			 M123.432,45.725c0,1.248,0.045,2.094,0.135,2.535c0.078,0.441,0.238,0.799,0.48,1.072c0.196,0.261,0.455,0.473,0.775,0.635
			c0.314,0.192,0.691,0.288,1.131,0.288c0.443,0,0.829-0.096,1.156-0.288c0.309-0.162,0.557-0.374,0.742-0.635
			c0.24-0.273,0.406-0.631,0.496-1.072c0.086-0.441,0.127-1.287,0.127-2.535s-0.041-2.1-0.127-2.553
			c-0.09-0.43-0.256-0.781-0.496-1.055c-0.187-0.262-0.435-0.479-0.742-0.654c-0.327-0.168-0.713-0.258-1.156-0.27
			c-0.438,0.012-0.814,0.102-1.131,0.27c-0.32,0.176-0.579,0.393-0.775,0.654c-0.242,0.273-0.402,0.624-0.48,1.055
			C123.477,43.625,123.432,44.477,123.432,45.725z"/>
		<path fill="#F92137" d="M133,48.991c0.979,0.831,2.141,1.252,3.49,1.264c1.596-0.022,2.404-0.612,2.428-1.767
			c0.012-0.945-0.521-1.514-1.602-1.705c-0.494-0.07-1.035-0.148-1.625-0.235c-1.058-0.18-1.859-0.583-2.409-1.21
			c-0.567-0.645-0.851-1.427-0.851-2.35c0-1.107,0.354-2.002,1.067-2.68c0.688-0.675,1.668-1.017,2.937-1.027
			c1.525,0.035,2.854,0.472,3.979,1.31l-1.036,1.579c-0.921-0.628-1.936-0.953-3.042-0.977c-0.573,0-1.051,0.147-1.433,0.442
			c-0.399,0.31-0.604,0.767-0.615,1.375c0,0.366,0.138,0.697,0.413,0.992c0.274,0.304,0.716,0.511,1.321,0.627
			c0.338,0.06,0.797,0.125,1.381,0.2c1.152,0.163,2.003,0.589,2.554,1.279c0.545,0.679,0.817,1.468,0.817,2.365
			c-0.062,2.426-1.498,3.655-4.31,3.69c-1.817,0-3.38-0.577-4.688-1.729L133,48.991z"/>
		<path fill="#F92137" d="M143.064,39.386h7.844v1.808h-5.984v3.627h5.109v1.703h-5.109v3.731h5.984v1.808h-7.844V39.386z"/>
		<path fill="#F92137" d="M152.794,39.386H155l-0.674,9.546h-0.875L152.794,39.386z M153.027,50.255h1.758v1.808h-1.758V50.255z"/>
		<path fill="#F92137" d="M157.385,39.386h2.207l-0.674,9.546h-0.877L157.385,39.386z M157.619,50.255h1.756v1.808h-1.756V50.255z"
			/>
		<path fill="#F92137" d="M161.977,39.386h2.205l-0.674,9.546h-0.875L161.977,39.386z M162.21,50.255h1.757v1.808h-1.757V50.255z"/>
	</g>
</g>
</svg>
